<mxfile host="65bd71144e">
    <diagram id="zaUWqC4FuSdCaBaxrC4w" name="Page-1">
        <mxGraphModel dx="816" dy="575" grid="1" gridSize="10" guides="1" tooltips="1" connect="1" arrows="1" fold="1" page="1" pageScale="1" pageWidth="827" pageHeight="1169" math="0" shadow="0">
            <root>
                <mxCell id="0"/>
                <mxCell id="1" parent="0"/>
                <UserObject label="&lt;font color=&quot;#00ff00&quot;&gt;设备1错误计时器&lt;/font&gt;&lt;br&gt;can_err_timer1(void)" name="Tessa Miller" position="CFO" location="Office 1" email="me@example.com" placeholders="1" link="https://www.draw.io" id="41">
                    <mxCell style="label;whiteSpace=wrap;html=1;rounded=0;glass=0;treeMoving=1;treeFolding=1;align=left;fontSize=12;spacingLeft=5;" parent="1" vertex="1">
                        <mxGeometry x="280" y="120" width="200" height="80" as="geometry"/>
                    </mxCell>
                </UserObject>
                <mxCell id="62" style="edgeStyle=none;shape=link;html=1;exitX=1;exitY=0.5;exitDx=0;exitDy=0;entryX=0;entryY=0.5;entryDx=0;entryDy=0;fontSize=12;fontColor=#00FF00;" parent="1" source="59" target="41" edge="1">
                    <mxGeometry relative="1" as="geometry"/>
                </mxCell>
                <mxCell id="63" style="edgeStyle=none;shape=link;html=1;exitX=1;exitY=0.5;exitDx=0;exitDy=0;entryX=0;entryY=0.5;entryDx=0;entryDy=0;fontSize=12;fontColor=#00FF00;" parent="1" source="59" edge="1">
                    <mxGeometry relative="1" as="geometry">
                        <mxPoint x="280" y="280" as="targetPoint"/>
                    </mxGeometry>
                </mxCell>
                <mxCell id="64" style="edgeStyle=none;shape=link;html=1;exitX=1;exitY=0.5;exitDx=0;exitDy=0;entryX=0;entryY=0.5;entryDx=0;entryDy=0;fontSize=12;fontColor=#00FF00;" parent="1" source="59" edge="1">
                    <mxGeometry relative="1" as="geometry">
                        <mxPoint x="280" y="400" as="targetPoint"/>
                    </mxGeometry>
                </mxCell>
                <mxCell id="65" style="edgeStyle=none;shape=link;html=1;exitX=1;exitY=0.5;exitDx=0;exitDy=0;entryX=0;entryY=0.5;entryDx=0;entryDy=0;fontSize=12;fontColor=#00FF00;" parent="1" source="59" edge="1">
                    <mxGeometry relative="1" as="geometry">
                        <mxPoint x="280" y="520" as="targetPoint"/>
                    </mxGeometry>
                </mxCell>
                <UserObject label="&lt;font color=&quot;#00ff00&quot;&gt;can连接失败计时器&lt;br&gt;接收失败后每2s尝试接收一次&lt;br&gt;需要在Task1ms被调用&lt;br&gt;quantity：从机数量(0~5)&lt;/font&gt;&lt;br&gt;can_err_timer(uint8_t quantity))" name="Tessa Miller" position="CFO" location="Office 1" email="me@example.com" placeholders="1" link="https://www.draw.io" id="59">
                    <mxCell style="label;whiteSpace=wrap;html=1;rounded=0;glass=0;treeMoving=1;treeFolding=1;align=left;fontSize=12;spacingLeft=5;" parent="1" vertex="1">
                        <mxGeometry y="360" width="240" height="80" as="geometry"/>
                    </mxCell>
                </UserObject>
                <UserObject label="&lt;font color=&quot;#00ff00&quot;&gt;设备2错误计时器&lt;/font&gt;&lt;br&gt;can_err_timer2(void)" name="Tessa Miller" position="CFO" location="Office 1" email="me@example.com" placeholders="1" link="https://www.draw.io" id="74">
                    <mxCell style="label;whiteSpace=wrap;html=1;rounded=0;glass=0;treeMoving=1;treeFolding=1;align=left;fontSize=12;spacingLeft=5;" vertex="1" parent="1">
                        <mxGeometry x="280" y="240" width="200" height="80" as="geometry"/>
                    </mxCell>
                </UserObject>
                <UserObject label="&lt;font color=&quot;#00ff00&quot;&gt;设备3错误计时器&lt;/font&gt;&lt;br&gt;can_err_timer3(void)" name="Tessa Miller" position="CFO" location="Office 1" email="me@example.com" placeholders="1" link="https://www.draw.io" id="75">
                    <mxCell style="label;whiteSpace=wrap;html=1;rounded=0;glass=0;treeMoving=1;treeFolding=1;align=left;fontSize=12;spacingLeft=5;" vertex="1" parent="1">
                        <mxGeometry x="280" y="360" width="200" height="80" as="geometry"/>
                    </mxCell>
                </UserObject>
                <UserObject label="&lt;font color=&quot;#00ff00&quot;&gt;设备4错误计时器&lt;/font&gt;&lt;br&gt;can_err_timer5(void)" name="Tessa Miller" position="CFO" location="Office 1" email="me@example.com" placeholders="1" link="https://www.draw.io" id="76">
                    <mxCell style="label;whiteSpace=wrap;html=1;rounded=0;glass=0;treeMoving=1;treeFolding=1;align=left;fontSize=12;spacingLeft=5;" vertex="1" parent="1">
                        <mxGeometry x="280" y="480" width="200" height="80" as="geometry"/>
                    </mxCell>
                </UserObject>
                <mxCell id="83" style="edgeStyle=none;shape=link;html=1;exitX=0;exitY=0.5;exitDx=0;exitDy=0;entryX=1;entryY=0.5;entryDx=0;entryDy=0;" edge="1" parent="1" source="77" target="59">
                    <mxGeometry relative="1" as="geometry"/>
                </mxCell>
                <UserObject label="&lt;font color=&quot;#00ff00&quot;&gt;设备5错误计时器&lt;/font&gt;&lt;br&gt;can_err_timer5(void)" name="Tessa Miller" position="CFO" location="Office 1" email="me@example.com" placeholders="1" link="https://www.draw.io" id="77">
                    <mxCell style="label;whiteSpace=wrap;html=1;rounded=0;glass=0;treeMoving=1;treeFolding=1;align=left;fontSize=12;spacingLeft=5;" vertex="1" parent="1">
                        <mxGeometry x="280" y="600" width="200" height="80" as="geometry"/>
                    </mxCell>
                </UserObject>
            </root>
        </mxGraphModel>
    </diagram>
</mxfile>